# xmcd
#
# Track frame offsets: 
#        150
#        11737
#        23775
#        37560
#        61115
#        72612
#        83910
#        95640
#        104752
#        115470
#        126722
#        139030
#        149442
#        161532
#        172512
#        185017
#        195627
#        206405
#        218532
#        228697
#        240567
#        249810
#        260950
#        270285
#        280120
#
# Disc length: 3881 seconds
#
# Revision: 6
# Processed by: cddbd v1.5.2PL0 Copyright (c) Steve Scherf et al.
# Submitted via: ExactAudioCopyFreeDBPlugin 1.0
#
DISCID=6a0f2719
DTITLE=Various Artist - The Spirit of New Orleans:  The Genius of Dav
DTITLE=e Bartholomew
DYEAR=1992
DGENRE=Rhythm and Blues
TTITLE0=Dave Bartholomew - Ain't Gonna Do It
TTITLE1=Jewel King - Don't Marry Too Soon
TTITLE2=Tommy Ridgley - Shrewsbury Blues
TTITLE3=Archibald - Stack-A-Lee  (Part 1 and 2)
TTITLE4=Big Joe Turner - The Blues Jumped Over the Rabbit
TTITLE5=Rodney Harris and Dave Bartholomew - Blow Your Top
TTITLE6=Jewel King - 3 X 7 =21
TTITLE7=Dave Bartholomew - Little Girl Sing Ding A Ling
TTITLE8=Shirley and Lee - I'm Gone
TTITLE9=T-Bone Walker - Pony Tail
TTITLE10=Smiley Lewis - Blue Monday
TTITLE11=Little Sonny Jones - I Got Booted
TTITLE12=The Hawks - I-Yi
TTITLE13=Fats Domino - Ain't It a Shame
TTITLE14=Little Booker - Thinking About My Baby
TTITLE15=Pee Wee Crayton - Every Dog Has a Day
TTITLE16=Blanche Thomas - You Ain't So Such a Much
TTITLE17=Bernie Williams - Why Fool Yourself
TTITLE18=Billy Tate - Single Life
TTITLE19=Shirley and Lee - The Real Thing
TTITLE20=Al Reed - Drops of Rain
TTITLE21=Joan Scott - Mighty Long Road
TTITLE22=T-Bone Walker - Teen Age Baby
TTITLE23=Fats Domino - Bo Weevil
TTITLE24=Pee Wee Crayton - Runnin' Wild
EXTD=
EXTT0=
EXTT1=
EXTT2=
EXTT3=
EXTT4=
EXTT5=
EXTT6=
EXTT7=
EXTT8=
EXTT9=
EXTT10=
EXTT11=
EXTT12=
EXTT13=
EXTT14=
EXTT15=
EXTT16=
EXTT17=
EXTT18=
EXTT19=
EXTT20=
EXTT21=
EXTT22=
EXTT23=
EXTT24=
PLAYORDER=
